<?xml version="1.0" encoding="UTF-8" ?>
<!DOCTYPE svg PUBLIC "-//W3C//DTD SVG 1.1//EN" "http://www.w3.org/Graphics/SVG/1.1/DTD/svg11.dtd">
<svg width="458pt" height="458pt" viewBox="0 0 458 458" version="1.1" xmlns="http://www.w3.org/2000/svg">
<g id="#f3f2f3ff">
</g>
<g id="#010101ff">
<path fill="#010101" opacity="1.00" d=" M 207.08 63.08 C 212.22 57.08 216.47 50.22 222.65 45.17 C 224.56 53.82 225.64 62.61 226.47 71.42 C 227.86 80.60 226.63 89.87 225.37 99.00 C 223.58 112.06 218.37 124.57 210.58 135.19 C 214.92 141.64 221.02 147.76 221.23 156.03 C 221.73 157.83 219.76 158.29 218.50 158.69 C 191.42 167.44 164.19 176.46 139.15 190.20 C 128.19 196.67 116.28 203.53 110.36 215.34 C 107.80 221.93 108.78 230.04 113.63 235.37 C 121.95 244.68 135.58 246.76 143.71 256.30 C 148.07 260.95 150.14 267.95 148.05 274.09 C 146.30 278.70 140.92 279.61 137.41 282.41 C 131.17 286.48 127.08 292.81 122.16 298.21 C 116.35 290.09 109.80 281.68 100.22 277.90 C 90.49 273.66 79.65 276.65 69.52 274.62 C 61.16 273.07 52.40 272.26 44.84 268.08 C 39.86 265.67 35.03 261.68 33.81 256.04 C 33.10 251.51 33.91 246.88 35.77 242.72 C 40.51 230.56 49.74 220.86 59.38 212.37 C 111.86 165.99 162.15 116.88 207.08 63.08 Z" />
<path fill="#010101" opacity="1.00" d=" M 403.48 108.46 C 409.59 102.91 414.86 96.46 421.30 91.26 C 424.65 103.27 423.31 116.37 418.88 127.93 C 411.06 147.38 394.00 161.50 375.60 170.57 C 373.95 171.69 371.18 172.13 370.93 174.48 C 368.92 186.30 364.67 197.88 357.77 207.74 C 350.34 218.45 339.33 226.53 327.09 230.89 C 320.60 233.74 313.51 234.62 306.75 236.56 C 304.43 247.21 298.80 257.40 289.81 263.81 C 278.21 271.99 264.22 276.73 250.06 277.53 C 231.13 277.72 213.23 284.76 196.09 292.15 C 185.75 281.50 171.30 273.75 156.08 275.40 C 157.12 266.08 154.64 255.95 147.54 249.46 C 139.59 240.45 126.23 238.84 118.66 229.40 C 115.30 225.65 116.20 219.77 118.75 215.83 C 122.19 210.64 127.34 206.94 132.24 203.23 C 151.82 190.29 173.81 181.59 195.89 173.96 C 205.00 171.03 213.99 167.74 223.21 165.20 C 231.72 163.51 240.48 165.01 249.05 163.76 C 283.86 161.49 318.77 154.92 350.88 140.93 C 369.86 132.75 387.73 121.89 403.48 108.46 Z" />
<path fill="#010101" opacity="1.00" d=" M 151.41 283.73 C 162.99 280.68 175.94 284.24 184.68 292.33 C 191.69 298.44 195.38 307.81 195.39 317.02 C 194.55 333.06 180.77 346.90 164.99 348.73 C 156.19 349.60 147.00 347.54 139.97 342.03 C 133.18 337.01 128.53 329.31 126.90 321.06 C 124.38 304.80 135.58 287.96 151.41 283.73 Z" />
<path fill="#010101" opacity="1.00" d=" M 201.42 302.02 C 209.21 305.99 215.58 312.17 221.55 318.45 C 232.70 331.04 240.00 347.11 241.35 363.93 C 237.23 359.14 234.70 353.22 230.56 348.44 C 223.13 339.02 211.77 333.53 200.17 331.30 C 200.86 326.20 202.30 321.19 202.30 316.01 C 202.50 311.32 201.61 306.69 201.42 302.02 Z" />
<path fill="#010101" opacity="1.00" d=" M 169.32 356.69 C 177.76 353.32 185.49 348.53 192.97 343.42 C 193.75 344.16 194.49 344.93 195.20 345.74 C 196.12 351.11 196.72 356.58 196.19 362.03 C 193.75 381.94 180.45 399.32 163.85 409.92 C 164.58 407.16 165.80 404.57 166.96 401.98 C 172.28 387.62 174.80 371.40 169.32 356.69 Z" />
<path fill="#010101" opacity="1.00" d=" M 133.19 346.83 C 140.57 351.70 148.78 355.09 157.40 357.01 C 147.68 371.87 131.81 381.80 115.11 387.10 C 104.91 389.78 94.45 392.12 83.83 391.50 C 85.80 389.79 88.10 388.55 90.38 387.33 C 107.36 377.19 122.63 363.67 133.19 346.83 Z" />
</g>
</svg>
