<?xml version="1.0" encoding="UTF-8" ?>
<!DOCTYPE svg PUBLIC "-//W3C//DTD SVG 1.1//EN" "http://www.w3.org/Graphics/SVG/1.1/DTD/svg11.dtd">
<svg width="458pt" height="458pt" viewBox="0 0 458 458" version="1.1" xmlns="http://www.w3.org/2000/svg">
<g id="#ffffffff">
<path fill="#ffffff" opacity="1.00" d=" M 0.00 0.00 L 4.22 0.00 C 2.79 1.87 1.45 3.81 0.00 5.67 L 0.00 0.00 Z" />
<path fill="#ffffff" opacity="1.00" d=" M 451.28 0.00 L 458.00 0.00 L 458.00 9.81 C 457.23 7.66 456.77 5.38 455.69 3.34 C 454.37 2.05 452.76 1.09 451.28 0.00 Z" />
<path fill="#ffffff" opacity="1.00" d=" M 453.70 455.71 C 456.04 453.43 457.07 450.23 458.00 447.19 L 458.00 458.00 L 447.18 458.00 C 449.35 457.23 451.63 456.75 453.70 455.71 Z" />
<path fill="#ffffff" opacity="1.00" d=" M 0.00 451.50 C 1.59 455.70 5.91 457.00 9.84 458.00 L 0.00 458.00 L 0.00 451.50 Z" />
</g>
<g id="#0c0d0cff">
</g>
<g id="#fefefeff">
<path fill="#fefefe" opacity="1.00" d=" M 206.64 63.62 C 211.96 57.46 216.30 50.37 222.66 45.17 C 224.51 53.55 225.59 62.08 226.38 70.63 C 228.02 81.39 226.45 92.29 224.69 102.93 C 222.54 114.57 217.58 125.66 210.55 135.16 C 214.91 141.62 221.02 147.74 221.23 156.03 C 221.74 157.82 219.73 158.29 218.50 158.69 C 202.09 163.94 185.75 169.42 169.74 175.80 C 152.55 183.05 135.22 190.76 120.61 202.59 C 114.25 208.25 107.63 215.90 109.13 225.07 C 109.63 232.45 115.35 238.06 121.38 241.64 C 129.51 246.67 139.23 249.94 145.07 257.97 C 148.56 262.46 149.87 268.73 148.03 274.16 C 146.24 278.72 140.89 279.61 137.41 282.43 C 131.18 286.51 127.04 292.77 122.18 298.24 C 116.02 289.49 108.75 280.55 98.20 277.11 C 89.07 274.05 79.28 276.48 69.95 274.69 C 60.28 273.02 50.13 271.87 41.73 266.34 C 37.52 263.64 33.70 259.32 33.62 254.06 C 33.05 247.76 35.97 241.95 38.65 236.46 C 44.12 226.73 52.08 218.70 60.43 211.42 C 112.38 165.50 162.11 116.84 206.64 63.62 Z" />
<path fill="#fefefe" opacity="1.00" d=" M 403.48 108.46 C 409.59 102.92 414.85 96.46 421.30 91.27 C 424.34 101.79 423.41 113.13 420.44 123.56 C 414.87 141.22 401.38 155.33 385.83 164.84 C 381.54 167.78 376.74 169.82 372.25 172.41 C 370.57 173.24 370.91 175.46 370.45 176.98 C 367.00 194.78 358.02 212.33 342.74 222.74 C 332.22 230.55 319.29 233.70 306.74 236.56 C 304.37 247.69 298.26 258.26 288.66 264.63 C 277.25 272.25 263.77 276.80 250.07 277.53 C 231.13 277.73 213.23 284.75 196.09 292.15 C 185.75 281.50 171.30 273.76 156.08 275.39 C 157.12 266.08 154.64 255.95 147.54 249.46 C 139.58 240.46 126.23 238.83 118.66 229.39 C 115.28 225.63 116.21 219.71 118.78 215.76 C 122.38 210.43 127.73 206.62 132.82 202.82 C 159.49 185.50 190.04 175.69 220.08 166.05 C 226.82 163.78 234.02 164.48 241.00 164.30 C 276.74 162.40 312.73 156.68 345.99 142.97 C 366.80 134.58 386.39 123.04 403.48 108.46 Z" />
<path fill="#fefefe" opacity="1.00" d=" M 151.41 283.72 C 168.91 279.00 189.66 289.90 194.13 307.83 C 197.08 316.78 194.53 326.66 189.21 334.18 C 183.96 341.54 175.80 346.63 167.00 348.54 C 160.71 349.12 154.11 349.14 148.20 346.60 C 137.28 342.56 129.07 332.44 126.90 321.07 C 124.40 304.81 135.57 287.97 151.41 283.72 Z" />
<path fill="#fefefe" opacity="1.00" d=" M 201.41 302.04 C 209.22 305.98 215.57 312.17 221.55 318.44 C 232.71 331.04 239.99 347.12 241.38 363.95 C 237.51 359.56 235.14 354.08 231.45 349.54 C 224.01 339.53 212.24 333.57 200.16 331.31 C 200.88 326.21 202.28 321.19 202.30 316.01 C 202.50 311.32 201.63 306.70 201.41 302.04 Z" />
<path fill="#fefefe" opacity="1.00" d=" M 169.32 356.71 C 177.77 353.32 185.49 348.51 192.99 343.42 C 193.77 344.15 194.50 344.93 195.19 345.76 C 196.85 354.42 197.00 363.59 194.04 372.00 C 188.92 387.85 177.51 401.47 163.38 410.13 C 171.24 393.76 175.77 374.32 169.32 356.71 Z" />
<path fill="#fefefe" opacity="1.00" d=" M 133.18 346.83 C 140.56 351.70 148.76 355.08 157.38 357.01 C 145.14 375.62 123.74 386.49 102.19 390.10 C 96.17 391.40 89.98 391.66 83.84 391.51 C 85.77 389.75 88.11 388.57 90.38 387.33 C 107.35 377.18 122.64 363.68 133.18 346.83 Z" />
</g>
</svg>
